# xmcd
#
# Track frame offsets:
# 150
# 29393
# 58355
# 87720
# 118014
# 147792
# 177104
# 205356
#
# Disc length: 3143 seconds
#
#
# Revision: 0
# Processed by: cddbd v1.5.1PL2 Copyright (c) Steve Scherf et al.
# Submitted via: FreeRIP 2.944 
#
DISCID=770c4508
DTITLE=Dvorana - Hooked on Contra
DYEAR=1996
DGENRE=Country
TTITLE0=01-Green Willis (Constitution Hornpipe, Yellow Rose) 120bpm
TTITLE1=02-Saratoga Hornpipe (Barlow Knife, Shenandoah Falls) 122bpm
TTITLE2=03-Frenchy's Reel (La Ronflusse Gobiel) 120bpm
TTITLE3=04-Forrester's Hornpipe (Good for the Tongue, Walker Street) 118bpm
TTITLE4=05-Don Tremaine's Reel (The Golden Keyboard) 118bpm
TTITLE5=06-Vinton's Hornpipe (President Garfield's Hornpipe) 120bpm
TTITLE6=07-Haste to the Wedding (Johnny Don't Get Drunk) 124bpm
TTITLE7=Mountain Ranger (Old Joe, Red Wing) 116bpm
EXTD=Dvorana and The Lloyd Shaw Foundation, Inc.\nHOOKED ON CONTRA\n8 medleys for your contra dancing
EXTT0=
EXTT1=
EXTT2=
EXTT3=
EXTT4=
EXTT5=
EXTT6=
EXTT7=
PLAYORDER=
